<svg width="729" height="215" viewBox="0 0 729 215" fill="none" xmlns="http://www.w3.org/2000/svg">
<path fill-rule="evenodd" clip-rule="evenodd" d="M38.7389 -61.1098C46.4947 -94.3362 39.7384 -130.869 74.1279 -155.754C111.831 -183.036 169.869 -199.763 236.205 -203.997C307.642 -208.557 391.844 -208.474 457.064 -180.197C521.052 -152.455 518.408 -103.33 557.361 -64.7578C597.169 -25.338 675.829 5.83447 686.969 47.4622C699.192 93.1405 681.164 142.81 618.806 164.854C557.446 186.545 463.686 161.728 382.189 155.203C315.317 149.849 248.909 150.19 185.965 130.198C120.823 109.507 56.6267 80.0821 27.817 42.6465C0.0828472 6.60844 30.6347 -26.3905 38.7389 -61.1098Z" stroke="url(#paint0_linear)"/>
<path fill-rule="evenodd" clip-rule="evenodd" d="M56.8152 -58.7274C64.1393 -90.1135 57.769 -124.621 90.2259 -148.131C125.81 -173.907 180.583 -189.716 243.184 -193.726C310.599 -198.044 390.06 -197.978 451.603 -171.279C511.984 -145.084 509.481 -98.6809 546.234 -62.2524C583.795 -25.0235 658.021 4.40932 668.527 43.7282C680.056 86.873 663.035 133.792 604.184 154.624C546.277 175.122 457.8 151.695 380.893 145.544C317.787 140.497 255.118 140.829 195.722 121.955C134.251 102.421 73.6741 74.6365 46.4925 39.2801C20.3255 5.24359 49.162 -25.9311 56.8152 -58.7274Z" stroke="url(#paint1_linear)"/>
<path fill-rule="evenodd" clip-rule="evenodd" d="M79.5741 -51.0287C86.2198 -79.569 80.5087 -110.931 109.83 -132.34C141.977 -155.812 191.431 -170.245 247.938 -173.96C308.79 -177.961 380.51 -177.99 436.028 -153.787C490.497 -130.041 488.187 -87.8553 521.319 -54.7804C555.179 -20.9787 622.141 5.69476 631.579 41.4266C641.937 80.6353 626.522 123.307 573.381 142.31C521.091 161.009 441.26 139.812 371.852 134.306C314.9 129.788 258.336 130.16 204.747 113.068C149.286 95.3794 94.6416 70.1893 70.1475 38.0783C46.5677 7.16606 72.6298 -21.2061 79.5741 -51.0287Z" stroke="url(#paint2_linear)"/>
<path fill-rule="evenodd" clip-rule="evenodd" d="M111.255 -47.0585C117.134 -72.2943 112.068 -100.028 138.032 -118.953C166.498 -139.701 210.295 -152.451 260.34 -155.723C314.235 -159.246 377.755 -159.254 426.932 -137.839C475.18 -116.828 473.143 -79.5245 502.496 -50.2692C532.493 -20.3712 591.806 3.23156 600.174 34.8305C609.356 69.5042 595.714 107.234 548.653 124.025C502.346 140.548 431.637 121.784 370.163 116.898C319.72 112.89 269.623 113.205 222.157 98.0783C173.032 82.423 124.629 60.1349 102.927 31.7341C82.036 4.39357 105.112 -20.6889 111.255 -47.0585Z" stroke="url(#paint3_linear)"/>
<path fill-rule="evenodd" clip-rule="evenodd" d="M141.805 -43.2316C146.944 -65.2767 142.5 -89.5081 165.225 -106.033C190.141 -124.15 228.482 -135.275 272.297 -138.117C319.482 -141.177 375.095 -141.164 418.158 -122.439C460.406 -104.067 458.635 -71.4781 484.344 -45.91C510.616 -19.78 562.554 0.859581 569.89 28.4685C577.941 58.7639 566.009 91.7219 524.812 106.376C484.275 120.796 422.361 104.38 368.537 100.092C324.373 96.5734 280.511 96.8329 238.949 83.6021C195.934 69.9091 153.549 50.4215 134.539 25.6024C116.24 1.70973 136.435 -20.1959 141.805 -43.2316Z" stroke="url(#paint4_linear)"/>
<path fill-rule="evenodd" clip-rule="evenodd" d="M170.084 -39.6463C174.556 -58.8438 170.706 -79.9413 190.449 -94.3387C212.095 -110.124 245.398 -119.825 283.452 -122.317C324.432 -125 372.732 -125.01 410.124 -108.722C446.809 -92.7418 445.258 -64.3645 467.576 -42.1113C490.383 -19.3692 535.482 -1.41772 541.843 22.6195C548.823 48.9957 538.448 77.698 502.663 90.4741C467.451 103.045 413.686 88.7755 366.943 85.0627C328.588 82.0161 290.495 82.2591 254.403 70.7547C217.051 58.8483 180.248 41.8963 163.748 20.2927C147.864 -0.504402 165.412 -19.5863 170.084 -39.6463Z" stroke="url(#paint5_linear)"/>
<path fill-rule="evenodd" clip-rule="evenodd" d="M192.709 -36.7787C196.646 -53.6981 193.271 -72.2884 210.629 -84.9841C229.659 -98.9031 258.932 -107.466 292.376 -109.678C328.393 -112.059 370.842 -112.088 403.697 -97.7493C435.931 -83.6819 434.557 -58.6741 454.162 -39.073C474.197 -19.0412 513.825 -3.24015 519.406 17.9398C525.529 41.1805 516.399 66.4784 484.944 77.7517C453.993 88.8445 406.747 76.2915 365.668 73.0387C331.96 70.3697 298.482 70.5995 266.768 60.4761C233.945 49.9991 201.607 35.0754 187.115 16.0443C173.164 -2.2763 188.594 -19.0991 192.709 -36.7787Z" stroke="url(#paint6_linear)"/>
<path fill-rule="evenodd" clip-rule="evenodd" d="M214.201 -34.0542C217.632 -48.8094 214.708 -65.0178 229.799 -76.0968C246.344 -88.2433 271.788 -95.725 300.854 -97.67C332.156 -99.7646 369.046 -99.811 397.591 -87.3248C425.598 -75.0747 424.391 -53.268 441.418 -36.1863C458.82 -18.7292 493.25 -4.97115 498.09 13.4943C503.4 33.7564 495.452 55.82 468.111 65.6658C441.207 75.354 400.154 64.4319 364.456 61.6163C335.164 59.3059 306.07 59.5231 278.513 50.7118C249.994 41.5927 221.898 28.596 209.314 12.0087C197.199 -3.9593 210.616 -18.6361 214.201 -34.0542Z" stroke="url(#paint7_linear)"/>
<path fill-rule="evenodd" clip-rule="evenodd" d="M234.563 -31.473C237.513 -44.1779 235.017 -58.1299 247.96 -67.6772C262.151 -78.1446 283.968 -84.6016 308.886 -86.2943C335.721 -88.1172 367.344 -88.1803 391.807 -77.4489C415.808 -66.9205 414.759 -48.1464 429.345 -33.4514C444.252 -18.4336 473.759 -6.61099 477.896 9.28282C482.435 26.7232 475.608 45.7226 452.163 54.2161C429.094 62.5735 393.909 53.1965 363.308 50.795C338.199 48.8245 313.258 49.0297 289.641 41.4615C265.199 33.6288 241.122 22.4576 230.344 8.18557C219.968 -5.55366 231.48 -18.1973 234.563 -31.473Z" stroke="url(#paint8_linear)"/>
<path fill-rule="evenodd" clip-rule="evenodd" d="M256.063 -28.793C258.487 -39.2185 256.422 -50.6706 267.082 -58.4991C278.769 -67.0819 296.742 -72.369 317.273 -73.7443C339.383 -75.2253 365.44 -75.2594 385.604 -66.4382C405.385 -57.7837 404.532 -42.376 416.559 -30.3074C428.85 -17.9735 453.17 -8.25388 456.587 4.79284C460.338 19.1091 454.723 34.6985 435.41 41.6561C416.406 48.5023 387.408 40.7866 362.193 38.7985C341.502 37.1671 320.951 37.3216 301.487 31.0969C281.343 24.6547 261.498 15.4727 252.609 3.75331C244.052 -7.5286 253.53 -17.8991 256.063 -28.793Z" stroke="url(#paint9_linear)"/>
<path fill-rule="evenodd" clip-rule="evenodd" d="M271.899 -26.7856C273.949 -35.6164 272.217 -45.3135 281.207 -51.9507C291.063 -59.2275 306.214 -63.7176 323.519 -64.8967C342.155 -66.1664 364.117 -66.2135 381.104 -58.7571C397.771 -51.4418 397.041 -38.3927 407.168 -28.1805C417.519 -17.7439 438.009 -9.52951 440.88 1.51706C444.031 13.6385 439.288 26.8448 423.006 32.7506C406.984 38.5617 382.55 32.0478 361.3 30.3818C343.863 29.0147 326.542 29.1599 310.141 23.9019C293.168 18.4603 276.449 10.6982 268.965 0.779529C261.761 -8.76887 269.757 -17.558 271.899 -26.7856Z" stroke="url(#paint10_linear)"/>
<defs>
<linearGradient id="paint0_linear" x1="30.164" y1="-75.9811" x2="698.281" y2="35.9219" gradientUnits="userSpaceOnUse">
<stop stop-color="#232425"/>
<stop offset="1" stop-color="#0E4861" stop-opacity="0.62"/>
</linearGradient>
<linearGradient id="paint1_linear" x1="48.7254" y1="-72.7731" x2="679.204" y2="32.8258" gradientUnits="userSpaceOnUse">
<stop stop-color="#232425"/>
<stop offset="1" stop-color="#0E4861" stop-opacity="0.62"/>
</linearGradient>
<linearGradient id="paint2_linear" x1="72.2881" y1="-63.7882" x2="641.229" y2="31.5036" gradientUnits="userSpaceOnUse">
<stop stop-color="#232425"/>
<stop offset="1" stop-color="#0E4861" stop-opacity="0.62"/>
</linearGradient>
<linearGradient id="paint3_linear" x1="104.799" y1="-58.3431" x2="608.717" y2="26.0582" gradientUnits="userSpaceOnUse">
<stop stop-color="#232425"/>
<stop offset="1" stop-color="#0E4861" stop-opacity="0.62"/>
</linearGradient>
<linearGradient id="paint4_linear" x1="136.149" y1="-53.0924" x2="577.368" y2="20.8074" gradientUnits="userSpaceOnUse">
<stop stop-color="#232425"/>
<stop offset="1" stop-color="#0E4861" stop-opacity="0.62"/>
</linearGradient>
<linearGradient id="paint5_linear" x1="165.176" y1="-48.2303" x2="548.34" y2="15.9458" gradientUnits="userSpaceOnUse">
<stop stop-color="#232425"/>
<stop offset="1" stop-color="#0E4861" stop-opacity="0.62"/>
</linearGradient>
<linearGradient id="paint6_linear" x1="188.398" y1="-44.3412" x2="525.118" y2="12.056" gradientUnits="userSpaceOnUse">
<stop stop-color="#232425"/>
<stop offset="1" stop-color="#0E4861" stop-opacity="0.62"/>
</linearGradient>
<linearGradient id="paint7_linear" x1="210.459" y1="-40.6463" x2="503.057" y2="8.3609" gradientUnits="userSpaceOnUse">
<stop stop-color="#232425"/>
<stop offset="1" stop-color="#0E4861" stop-opacity="0.62"/>
</linearGradient>
<linearGradient id="paint8_linear" x1="231.359" y1="-37.1458" x2="482.157" y2="4.86039" gradientUnits="userSpaceOnUse">
<stop stop-color="#232425"/>
<stop offset="1" stop-color="#0E4861" stop-opacity="0.62"/>
</linearGradient>
<linearGradient id="paint9_linear" x1="253.42" y1="-33.4506" x2="460.096" y2="1.16565" gradientUnits="userSpaceOnUse">
<stop stop-color="#232425"/>
<stop offset="1" stop-color="#0E4861" stop-opacity="0.62"/>
</linearGradient>
<linearGradient id="paint10_linear" x1="269.675" y1="-30.7282" x2="443.84" y2="-1.55718" gradientUnits="userSpaceOnUse">
<stop stop-color="#232425"/>
<stop offset="1" stop-color="#0E4861" stop-opacity="0.62"/>
</linearGradient>
</defs>
</svg>
