<svg width="454" height="413" viewBox="0 0 454 413" fill="none" xmlns="http://www.w3.org/2000/svg">
<path fill-rule="evenodd" clip-rule="evenodd" d="M140.325 10.2703C195.144 12.1055 251.354 1.31934 300.011 26.6375C353.357 54.3952 395.351 100.669 419.715 155.648C445.954 214.854 468.214 285.406 440.661 344.012C413.629 401.51 334.925 406.188 284.039 444.233C232.036 483.114 203.459 553.385 140.325 568.558C71.0479 585.208 -12.6113 577.074 -64.1963 527.927C-114.955 479.566 -100.486 397.537 -111.798 328.347C-121.081 271.574 -139.283 215.988 -124.279 160.452C-108.75 102.976 -79.1018 45.067 -27.3234 15.679C22.522 -12.6119 83.0426 8.3526 140.325 10.2703Z" stroke="url(#paint0_linear)"/>
<path fill-rule="evenodd" clip-rule="evenodd" d="M141.35 25.7481C193.132 27.4799 246.228 17.3013 292.19 41.1932C342.58 67.3872 382.248 111.055 405.263 162.936C430.047 218.807 451.075 285.384 425.048 340.689C399.513 394.948 325.17 399.362 277.103 435.264C227.98 471.954 200.986 538.267 141.35 552.585C75.9104 568.297 -3.11435 560.621 -51.8417 514.242C-99.7884 468.606 -86.1207 391.198 -96.8066 325.906C-105.575 272.331 -122.769 219.877 -108.596 167.469C-93.9275 113.231 -65.9215 58.5845 -17.0114 30.8521C30.0727 4.15491 87.2406 23.9384 141.35 25.7481Z" stroke="url(#paint1_linear)"/>
<path fill-rule="evenodd" clip-rule="evenodd" d="M135.178 45.8942C182.262 47.457 230.54 38.2719 272.331 59.8318C318.148 83.4691 354.216 122.874 375.143 169.691C397.678 220.109 416.797 280.188 393.132 330.095C369.915 379.058 302.318 383.041 258.612 415.439C213.947 448.548 189.403 508.388 135.178 521.309C75.6771 535.487 3.82343 528.561 -40.4822 486.708C-84.078 445.527 -71.6506 375.674 -81.3668 316.755C-89.3394 268.409 -104.973 221.075 -92.0862 173.783C-78.7489 124.838 -53.2843 75.5256 -8.81259 50.5C33.999 26.4087 85.9792 44.2612 135.178 45.8942Z" stroke="url(#paint2_linear)"/>
<path fill-rule="evenodd" clip-rule="evenodd" d="M137.299 72.992C178.932 74.3762 221.621 66.2409 258.574 85.3367C299.087 106.273 330.98 141.174 349.483 182.641C369.41 227.297 386.316 280.51 365.391 324.713C344.861 368.08 285.089 371.608 246.444 400.303C206.949 429.628 185.246 482.629 137.299 494.073C84.6865 506.631 21.1513 500.497 -18.0252 463.428C-56.574 426.952 -45.5852 365.083 -54.1766 312.897C-61.2262 270.077 -75.0502 228.152 -63.6551 186.265C-51.8618 142.914 -29.3452 99.237 9.97809 77.0714C47.8334 55.7334 93.796 71.5456 137.299 72.992Z" stroke="url(#paint3_linear)"/>
<path fill-rule="evenodd" clip-rule="evenodd" d="M139.347 99.122C175.717 100.334 213.01 93.2109 245.291 109.931C280.683 128.262 308.544 158.821 324.709 195.128C342.117 234.228 356.885 280.82 338.605 319.523C320.671 357.494 268.455 360.583 234.695 385.708C200.193 411.384 181.233 457.791 139.347 467.811C93.3853 478.806 37.8816 473.435 3.65748 440.978C-30.0183 409.041 -20.4187 354.87 -27.924 309.177C-34.0825 271.685 -46.159 234.976 -36.2043 198.301C-25.9019 160.344 -6.23159 122.101 28.1208 102.694C61.1908 84.0108 101.343 97.8556 139.347 99.122Z" stroke="url(#paint4_linear)"/>
<path fill-rule="evenodd" clip-rule="evenodd" d="M141.176 123.316C172.847 124.369 205.321 118.183 233.432 132.703C264.251 148.622 288.513 175.16 302.589 206.69C317.748 240.645 330.608 281.106 314.69 314.717C299.072 347.692 253.603 350.375 224.204 372.193C194.16 394.491 177.65 434.792 141.176 443.494C101.152 453.042 52.8194 448.378 23.017 420.191C-6.30797 392.457 2.05142 345.413 -4.48424 305.733C-9.84706 273.174 -20.3633 241.295 -11.6947 209.446C-2.72334 176.483 14.4056 143.272 44.3197 126.418C73.1171 110.194 108.082 122.217 141.176 123.316Z" stroke="url(#paint5_linear)"/>
<path fill-rule="evenodd" clip-rule="evenodd" d="M142.639 142.672C170.55 143.597 199.17 138.161 223.945 150.921C251.106 164.91 272.487 188.232 284.893 215.94C298.252 245.779 309.587 281.336 295.558 310.872C281.794 339.851 241.721 342.208 215.812 361.382C189.334 380.977 174.784 416.393 142.639 424.04C107.365 432.431 64.7696 428.332 38.5046 403.562C12.6603 379.189 20.0275 337.848 14.2676 302.977C9.54132 274.365 0.273325 246.35 7.91295 218.361C15.8195 189.394 30.9153 160.209 57.2788 145.398C82.6581 131.14 113.473 141.706 142.639 142.672Z" stroke="url(#paint6_linear)"/>
<path fill-rule="evenodd" clip-rule="evenodd" d="M144.028 161.06C168.369 161.864 193.327 157.14 214.931 168.228C238.618 180.384 257.263 200.65 268.082 224.727C279.732 250.656 289.616 281.554 277.382 307.22C265.379 332.401 230.434 334.45 207.84 351.111C184.749 368.139 172.061 398.914 144.028 405.559C113.268 412.85 76.1223 409.288 53.2178 387.764C30.6802 366.585 37.1048 330.661 32.0818 300.36C27.9603 275.496 19.8781 251.153 26.5402 226.831C33.4352 201.66 46.5995 176.299 69.5899 163.429C91.722 151.039 118.594 160.22 144.028 161.06Z" stroke="url(#paint7_linear)"/>
<path fill-rule="evenodd" clip-rule="evenodd" d="M145.345 178.48C166.302 179.169 187.791 175.12 206.393 184.624C226.787 195.044 242.841 212.414 252.155 233.052C262.186 255.277 270.696 281.761 260.163 303.76C249.828 325.344 219.74 327.1 200.287 341.381C180.406 355.976 169.481 382.355 145.345 388.05C118.86 394.3 86.8775 391.247 67.1566 372.798C47.7517 354.644 53.2833 323.852 48.9585 297.88C45.4098 276.568 38.451 255.702 44.1872 234.855C50.1237 213.28 61.4583 191.542 81.2531 180.51C100.309 169.89 123.446 177.76 145.345 178.48Z" stroke="url(#paint8_linear)"/>
<path fill-rule="evenodd" clip-rule="evenodd" d="M146.808 196.868C164.006 197.435 181.64 194.099 196.905 201.931C213.641 210.517 226.816 224.832 234.459 241.839C242.691 260.154 249.675 281.979 241.03 300.108C232.55 317.894 207.859 319.342 191.894 331.11C175.579 343.138 166.614 364.876 146.808 369.569C125.074 374.72 98.8277 372.204 82.6442 357C66.72 342.04 71.2594 316.665 67.7103 295.262C64.7982 277.7 59.0876 260.505 63.7948 243.325C68.6666 225.545 77.968 207.632 94.2122 198.541C109.85 189.789 128.837 196.274 146.808 196.868Z" stroke="url(#paint9_linear)"/>
<path fill-rule="evenodd" clip-rule="evenodd" d="M147.832 210.417C162.398 210.895 177.335 208.083 190.264 214.683C204.439 221.919 215.598 233.982 222.072 248.314C229.044 263.748 234.959 282.139 227.638 297.417C220.455 312.405 199.541 313.625 186.02 323.542C172.201 333.678 164.608 351.996 147.832 355.952C129.423 360.292 107.193 358.172 93.4856 345.36C79.9978 332.753 83.8426 311.37 80.8366 293.333C78.37 278.533 73.5332 264.043 77.5202 249.566C81.6465 234.583 89.5248 219.487 103.284 211.827C116.529 204.452 132.61 209.917 147.832 210.417Z" stroke="url(#paint10_linear)"/>
<defs>
<linearGradient id="paint0_linear" x1="161.657" y1="1" x2="161.657" y2="576.416" gradientUnits="userSpaceOnUse">
<stop stop-color="#232425"/>
<stop offset="1" stop-color="#0E4861" stop-opacity="0.51"/>
</linearGradient>
<linearGradient id="paint1_linear" x1="161.5" y1="17" x2="161.5" y2="560" gradientUnits="userSpaceOnUse">
<stop stop-color="#232425"/>
<stop offset="1" stop-color="#0E4861" stop-opacity="0.51"/>
</linearGradient>
<linearGradient id="paint2_linear" x1="153.5" y1="38" x2="153.5" y2="528" gradientUnits="userSpaceOnUse">
<stop stop-color="#232425"/>
<stop offset="1" stop-color="#0E4861" stop-opacity="0.51"/>
</linearGradient>
<linearGradient id="paint3_linear" x1="153.5" y1="66" x2="153.5" y2="500" gradientUnits="userSpaceOnUse">
<stop stop-color="#232425"/>
<stop offset="1" stop-color="#0E4861" stop-opacity="0.51"/>
</linearGradient>
<linearGradient id="paint4_linear" x1="153.5" y1="93" x2="153.5" y2="473" gradientUnits="userSpaceOnUse">
<stop stop-color="#232425"/>
<stop offset="1" stop-color="#0E4861" stop-opacity="0.51"/>
</linearGradient>
<linearGradient id="paint5_linear" x1="153.5" y1="118" x2="153.5" y2="448" gradientUnits="userSpaceOnUse">
<stop stop-color="#232425"/>
<stop offset="1" stop-color="#0E4861" stop-opacity="0.51"/>
</linearGradient>
<linearGradient id="paint6_linear" x1="153.5" y1="138" x2="153.5" y2="428" gradientUnits="userSpaceOnUse">
<stop stop-color="#232425"/>
<stop offset="1" stop-color="#0E4861" stop-opacity="0.51"/>
</linearGradient>
<linearGradient id="paint7_linear" x1="153.5" y1="157" x2="153.5" y2="409" gradientUnits="userSpaceOnUse">
<stop stop-color="#232425"/>
<stop offset="1" stop-color="#0E4861" stop-opacity="0.51"/>
</linearGradient>
<linearGradient id="paint8_linear" x1="153.5" y1="175" x2="153.5" y2="391" gradientUnits="userSpaceOnUse">
<stop stop-color="#232425"/>
<stop offset="1" stop-color="#0E4861" stop-opacity="0.51"/>
</linearGradient>
<linearGradient id="paint9_linear" x1="153.5" y1="194" x2="153.5" y2="372" gradientUnits="userSpaceOnUse">
<stop stop-color="#232425"/>
<stop offset="1" stop-color="#0E4861" stop-opacity="0.51"/>
</linearGradient>
<linearGradient id="paint10_linear" x1="153.5" y1="208" x2="153.5" y2="358" gradientUnits="userSpaceOnUse">
<stop stop-color="#232425"/>
<stop offset="1" stop-color="#0E4861" stop-opacity="0.51"/>
</linearGradient>
</defs>
</svg>
