<svg width="64" height="64" viewBox="0 0 64 64" fill="none" xmlns="http://www.w3.org/2000/svg">
<path d="M19.6667 44.7498L23 40.5845L12.2693 32.0005L23 23.4165L19.6667 19.2512L6.33334 29.9178C5.70134 30.4245 5.33334 31.1898 5.33334 32.0005C5.33334 32.8112 5.70134 33.5765 6.33334 34.0832L19.6667 44.7498ZM44.3333 19.2512L41 23.4165L51.7307 32.0005L41 40.5845L44.3333 44.7498L57.6667 34.0832C58.2987 33.5765 58.6667 32.8112 58.6667 32.0005C58.6667 31.1898 58.2987 30.4245 57.6667 29.9178L44.3333 19.2512Z" fill="white"/>
<path d="M39.9361 8.57739L29.271 56.5775L24.0621 55.4201L34.7272 7.42002L39.9361 8.57739Z" fill="white"/>
</svg>
