<svg width="18" height="18" viewBox="0 0 18 18" fill="none" xmlns="http://www.w3.org/2000/svg">
<path d="M9.00014 3.44633C8.17214 2.69183 7.11614 2.27783 6.00314 2.27783C4.81964 2.27783 3.69914 2.74508 2.84339 3.59633C1.07864 5.36858 1.07939 8.14058 2.84489 9.90533L8.34389 15.4043C8.47139 15.6286 8.71739 15.7733 9.00014 15.7733C9.24164 15.7733 9.45689 15.6511 9.59414 15.4666L15.1554 9.90533C16.9209 8.13983 16.9209 5.36858 15.1539 3.59333C14.3011 2.74508 13.1806 2.27783 11.9971 2.27783C10.8849 2.27783 9.82814 2.69183 9.00014 3.44633ZM14.0934 4.65383C15.2656 5.83208 15.2664 7.67258 14.0949 8.84483L9.00014 13.9396L3.90539 8.84483C2.73389 7.67258 2.73464 5.83208 3.90389 4.65683C4.47389 4.08983 5.21939 3.77783 6.00314 3.77783C6.78689 3.77783 7.52939 4.08983 8.09489 4.65533L8.46989 5.03033C8.76314 5.32358 9.23714 5.32358 9.53039 5.03033L9.90539 4.65533C11.0394 3.52358 12.9609 3.52658 14.0934 4.65383Z" fill="#F81743"/>
</svg>
