<svg width="64" height="64" viewBox="0 0 64 64" fill="none" xmlns="http://www.w3.org/2000/svg">
<path d="M44.6667 5.33331H18C15.0587 5.33331 12.6667 7.72531 12.6667 10.6666V53.3333C12.6667 56.2746 15.0587 58.6666 18 58.6666H44.6667C47.608 58.6666 50 56.2746 50 53.3333V10.6666C50 7.72531 47.608 5.33331 44.6667 5.33331ZM18 53.3333V10.6666H44.6667L44.672 53.3333H18Z" fill="white"/>
<path d="M31.3334 50.6666C32.8061 50.6666 34 49.4727 34 48C34 46.5272 32.8061 45.3333 31.3334 45.3333C29.8606 45.3333 28.6667 46.5272 28.6667 48C28.6667 49.4727 29.8606 50.6666 31.3334 50.6666Z" fill="white"/>
</svg>
