<svg width="24" height="24" viewBox="0 0 24 24" fill="none" xmlns="http://www.w3.org/2000/svg">
<path d="M11.857 17.417C8.91 17.417 7.563 15.893 7.563 14.776C7.563 14.51 7.671 14.255 7.861 14.071C8.051 13.888 8.308 13.792 8.571 13.807C9.832 13.807 9.502 15.727 11.857 15.727C13.06 15.727 13.767 14.991 13.767 14.302C13.767 13.887 13.533 13.413 12.739 13.223L10.11 12.55C7.999 12.005 7.631 10.813 7.631 9.70801C7.631 7.41501 9.699 6.58401 11.667 6.58401C13.481 6.58401 15.637 7.60001 15.637 8.97501C15.637 9.56701 15.149 9.88501 14.582 9.88501C13.504 9.88501 13.685 8.34901 11.519 8.34901C10.442 8.34901 9.874 8.86201 9.874 9.57901C9.874 10.296 10.713 10.539 11.448 10.702L13.389 11.147C15.515 11.633 16.08 12.898 16.08 14.11C16.08 15.975 14.657 17.415 11.854 17.415L11.857 17.417ZM19.993 13.473C20.079 12.983 20.121 12.487 20.121 11.991C20.131 9.49601 19.05 7.12501 17.169 5.51701C15.29 3.90801 12.804 3.22901 10.381 3.66101C9.638 3.22601 8.794 2.99801 7.935 3.00001C6.172 3.01001 4.548 3.97001 3.665 5.51901C2.784 7.06801 2.778 8.97601 3.65 10.53C3.163 13.244 4.016 16.027 5.932 17.983C7.849 19.938 10.587 20.818 13.265 20.338C14.008 20.773 14.851 21.001 15.708 21C17.472 20.989 19.094 20.03 19.977 18.482C20.859 16.934 20.866 15.027 19.993 13.473Z" fill="#3A3A3A"/>
</svg>
