<svg width="64" height="64" viewBox="0 0 64 64" fill="none" xmlns="http://www.w3.org/2000/svg">
<path d="M58.6668 21.3306C58.6668 20.3626 58.1415 19.4719 57.2908 18.9999L33.2322 5.66659C32.4295 5.22393 31.4535 5.22393 30.6508 5.66659L6.70951 18.8933C5.86151 19.3626 5.33617 20.2533 5.33351 21.2213C5.33084 22.1866 5.85351 23.0826 6.70151 23.5546L30.7602 36.9946C31.1655 37.2213 31.6108 37.3333 32.0588 37.3333C32.5068 37.3333 32.9522 37.2213 33.3548 36.9973L57.2962 23.6639C58.1442 23.1919 58.6668 22.2986 58.6668 21.3306ZM32.0615 31.6106L13.4935 21.2399L31.9388 11.0479L50.5095 21.3386L32.0615 31.6106Z" fill="white"/>
<path d="M54.7068 29.6692L32.0001 42.2825L9.29343 29.6692L6.7041 34.3305L30.7041 47.6639C31.1068 47.8879 31.5548 47.9999 32.0001 47.9999C32.4454 47.9999 32.8934 47.8879 33.2934 47.6639L57.2934 34.3305L54.7068 29.6692Z" fill="white"/>
<path d="M54.7068 40.3359L32.0001 52.9493L9.29343 40.3359L6.7041 44.9973L30.7041 58.3306C31.1068 58.5546 31.5548 58.6666 32.0001 58.6666C32.4454 58.6666 32.8934 58.5546 33.2934 58.3306L57.2934 44.9973L54.7068 40.3359Z" fill="white"/>
</svg>
