<svg width="64" height="64" viewBox="0 0 64 64" fill="none" xmlns="http://www.w3.org/2000/svg">
<path d="M53.3333 8H10.6667C7.72534 8 5.33334 10.392 5.33334 13.3333V50.6667C5.33334 53.608 7.72534 56 10.6667 56H26.6667H32H53.3333C56.2747 56 58.6667 53.608 58.6667 50.6667V13.3333C58.6667 10.392 56.2747 8 53.3333 8ZM10.6667 50.6667V18.6667H26.6667V50.6667H10.6667ZM32 50.6667V34.6667V18.6667H53.3333V13.3333L53.3387 50.6667H32Z" fill="white"/>
<path d="M34.6667 45.3333H50.6667V37.3333H34.6667V45.3333Z" fill="white"/>
<path d="M34.6667 32H50.6667V24H34.6667V32Z" fill="white"/>
<path d="M16 26.6666H21.3333V32H16V26.6666ZM16 37.3333H21.3333V42.6666H16V37.3333Z" fill="white"/>
</svg>
